<svg width="30" height="31" viewBox="0 0 30 31" fill="none" xmlns="http://www.w3.org/2000/svg">
<path d="M27.99 7.99344C26.6811 5.72503 24.7973 3.84175 22.5285 2.53344C20.229 1.19394 17.7195 0.523438 15 0.523438C12.2805 0.523438 9.771 1.19394 7.47 2.53344C5.1705 3.87294 3.3495 5.69394 2.01 7.99344C0.6705 10.2929 0 12.8039 0 15.5234C0 18.2429 0.669 20.7539 2.01 23.0534C3.31848 25.3222 5.20238 27.2056 7.4715 28.5134C9.771 29.8529 12.2805 30.5234 15 30.5234C17.7195 30.5234 20.229 29.8529 22.53 28.5134C24.7988 27.2051 26.6826 25.3218 27.9915 23.0534C29.331 20.7539 30 18.2429 30 15.5234C30 12.8039 29.331 10.2929 27.99 7.99344ZM15 3.01344C18 3.01344 20.658 3.97344 22.98 5.89194C21.6 7.65294 19.551 9.10194 16.83 10.2419C15.327 7.52244 13.698 5.25144 11.9385 3.43194C12.9357 3.15621 13.9654 3.01546 15 3.01344ZM5.265 7.72344C6.36186 6.33058 7.7497 5.19409 9.3315 4.39344C11.1495 6.19494 12.819 8.44344 14.3415 11.1434C11.3415 12.0434 8.1705 12.4934 4.83 12.4934C3.9705 12.4934 3.321 12.4739 2.88 12.4334C3.33971 10.715 4.15192 9.11102 5.265 7.72344ZM2.49 15.5234C2.49 15.4424 2.4945 15.3434 2.505 15.2234C2.5155 15.1034 2.52 15.0044 2.52 14.9234C2.901 14.9444 3.4815 14.9534 4.2615 14.9534C8.2605 14.9534 11.9805 14.4029 15.42 13.3034C15.7005 13.8629 15.9915 14.4929 16.29 15.1934C14.31 15.6329 12.279 16.7024 10.1985 18.4034C8.118 20.1044 6.6 21.8939 5.64 23.7734C3.54 21.3929 2.49 18.6434 2.49 15.5234ZM15 28.0334C12.159 28.0334 9.609 27.1529 7.3485 25.3949C8.25 23.6144 9.6345 21.9119 11.505 20.2934C13.374 18.6734 15.2295 17.6639 17.07 17.2634C18.231 20.4719 19.0162 23.8042 19.41 27.1934C18.0043 27.7427 16.5092 28.0275 15 28.0334ZM25.62 22.0934C24.6382 23.6752 23.3161 25.0183 21.75 26.0249C21.39 22.9049 20.7 19.8644 19.6815 16.9034C21.0795 16.8044 22.329 16.7534 23.4315 16.7534C24.63 16.7534 25.9605 16.8044 27.42 16.9034C27.2242 18.7482 26.6084 20.5236 25.62 22.0934ZM23.76 14.5934C22.02 14.5934 20.4105 14.6639 18.93 14.8034C18.6164 13.9826 18.2762 13.1722 17.91 12.3734C21.009 11.0144 23.208 9.36444 24.5085 7.42344C26.3085 9.54444 27.2895 11.9639 27.4485 14.6834C26.2305 14.6234 25.0005 14.5934 23.76 14.5934Z" fill="black"/>
</svg>
