<svg width="26" height="29" viewBox="0 0 26 29" fill="none" xmlns="http://www.w3.org/2000/svg">
<path d="M10.3895 11.9799C9.57651 11.9799 8.93601 12.6924 8.93601 13.5624C8.93601 14.4294 9.59151 15.1449 10.3895 15.1449C11.201 15.1449 11.8415 14.4294 11.8415 13.5624C11.858 12.6909 11.201 11.9799 10.3895 11.9799ZM15.5915 11.9799C14.7785 11.9799 14.138 12.6924 14.138 13.5624C14.138 14.4294 14.7935 15.1449 15.5915 15.1449C16.403 15.1449 17.0435 14.4294 17.0435 13.5624C17.042 12.6909 16.403 11.9799 15.5915 11.9799Z" fill="black"/>
<path d="M22.517 0.0234375H3.42051C3.036 0.0244212 2.65545 0.101131 2.30058 0.249186C1.94572 0.397241 1.62349 0.613743 1.35229 0.886329C1.0811 1.15892 0.866253 1.48225 0.720018 1.83787C0.573782 2.19349 0.499023 2.57443 0.50001 2.95894V22.2249C0.50001 23.8494 1.81101 25.1604 3.42051 25.1604H19.58L18.8225 22.5219L20.648 24.2184L22.3715 25.8144L25.4375 28.5234V2.95894C25.4385 2.57443 25.3637 2.19349 25.2175 1.83787C25.0713 1.48225 24.8564 1.15892 24.5852 0.886329C24.314 0.613743 23.9918 0.397241 23.6369 0.249186C23.2821 0.101131 22.9015 0.0244212 22.517 0.0234375ZM17.015 18.6339C17.015 18.6339 16.502 18.0219 16.076 17.4774C17.942 16.9494 18.6545 15.7824 18.6545 15.7824C18.0695 16.1664 17.5145 16.4394 17.015 16.6254C15.1965 17.3865 13.194 17.5942 11.258 17.2224C10.5427 17.0819 9.84173 16.8761 9.16401 16.6074C8.80658 16.4717 8.45922 16.3108 8.12451 16.1259C8.08101 16.0944 8.03901 16.0824 7.99701 16.0539C7.97454 16.0433 7.9546 16.0279 7.93851 16.0089C7.68201 15.8679 7.53951 15.7689 7.53951 15.7689C7.53951 15.7689 8.22351 16.9089 10.034 17.4504C9.60651 17.9904 9.07851 18.6339 9.07851 18.6339C5.93001 18.5334 4.73451 16.4679 4.73451 16.4679C4.73451 11.8794 6.78651 8.16094 6.78651 8.16094C8.83851 6.62044 10.79 6.66394 10.79 6.66394L10.9325 6.83494C8.36751 7.57744 7.18401 8.70244 7.18401 8.70244C7.18401 8.70244 7.49901 8.53144 8.02551 8.28994C9.54951 7.62094 10.76 7.43494 11.2595 7.39144C11.345 7.37794 11.417 7.36294 11.5025 7.36294C13.9733 7.02996 16.4857 7.49953 18.6695 8.70244C18.6695 8.70244 17.543 7.63444 15.1205 6.89344L15.32 6.66544C15.32 6.66544 17.273 6.62194 19.3235 8.16244C19.3235 8.16244 21.3755 11.8809 21.3755 16.4694C21.3755 16.4694 20.165 18.5334 17.015 18.6339Z" fill="black"/>
</svg>
