<svg width="28" height="28" viewBox="0 0 28 28" fill="none" xmlns="http://www.w3.org/2000/svg">
<path d="M26 0.0234375H2C1.60218 0.0234375 1.22064 0.181473 0.93934 0.462777C0.658035 0.744082 0.5 1.12561 0.5 1.52344V25.5234C0.5 25.9213 0.658035 26.3028 0.93934 26.5841C1.22064 26.8654 1.60218 27.0234 2 27.0234H14.9225V16.5834H11.4155V12.4959H14.9225V9.49594C14.9225 6.00844 17.0525 4.10794 20.1725 4.10794C21.221 4.10494 22.271 4.15894 23.315 4.26844V7.89844H21.1625C19.4705 7.89844 19.1405 8.70544 19.1405 9.88594V12.4884H23.186L22.661 16.5759H19.139V27.0234H26C26.3978 27.0234 26.7794 26.8654 27.0607 26.5841C27.342 26.3028 27.5 25.9213 27.5 25.5234V1.52344C27.5 1.12561 27.342 0.744082 27.0607 0.462777C26.7794 0.181473 26.3978 0.0234375 26 0.0234375Z" fill="black"/>
</svg>
