<svg width="28" height="28" viewBox="0 0 28 28" fill="none" xmlns="http://www.w3.org/2000/svg">
<path d="M13.9984 6.589C12.1589 6.589 10.3947 7.31976 9.09394 8.62051C7.79319 9.92126 7.06243 11.6855 7.06243 13.525C7.06243 15.3645 7.79319 17.1287 9.09394 18.4295C10.3947 19.7302 12.1589 20.461 13.9984 20.461C15.838 20.461 17.6022 19.7302 18.9029 18.4295C20.2037 17.1287 20.9344 15.3645 20.9344 13.525C20.9344 11.6855 20.2037 9.92126 18.9029 8.62051C17.6022 7.31976 15.838 6.589 13.9984 6.589ZM13.9984 18.0295C12.8034 18.0295 11.6572 17.5548 10.8122 16.7097C9.96717 15.8647 9.49243 14.7186 9.49243 13.5235C9.49243 12.3284 9.96717 11.1823 10.8122 10.3373C11.6572 9.49224 12.8034 9.01751 13.9984 9.01751C15.1935 9.01751 16.3396 9.49224 17.1847 10.3373C18.0297 11.1823 18.5044 12.3284 18.5044 13.5235C18.5044 14.7186 18.0297 15.8647 17.1847 16.7097C16.3396 17.5548 15.1935 18.0295 13.9984 18.0295Z" fill="black"/>
<path d="M21.2089 7.95101C22.102 7.95101 22.8259 7.22705 22.8259 6.33401C22.8259 5.44096 22.102 4.71701 21.2089 4.71701C20.3159 4.71701 19.5919 5.44096 19.5919 6.33401C19.5919 7.22705 20.3159 7.95101 21.2089 7.95101Z" fill="black"/>
<path d="M26.7994 4.69001C26.4522 3.79328 25.9215 2.97893 25.2414 2.29909C24.5613 1.61926 23.7468 1.08891 22.8499 0.742006C21.8004 0.348041 20.6917 0.135018 19.5709 0.112006C18.1264 0.0490057 17.6689 0.0310059 14.0059 0.0310059C10.3429 0.0310059 9.87343 0.0310057 8.44093 0.112006C7.32101 0.133841 6.21307 0.346908 5.16493 0.742006C4.26783 1.08851 3.45308 1.61871 2.77293 2.2986C2.09279 2.97849 1.56227 3.79304 1.21543 4.69001C0.821387 5.73943 0.608851 6.84826 0.58693 7.96901C0.52243 9.41201 0.50293 9.86951 0.50293 13.534C0.50293 17.197 0.50293 17.6635 0.58693 19.099C0.60943 20.221 0.82093 21.328 1.21543 22.3795C1.56325 23.2761 2.09427 24.0904 2.77458 24.7702C3.45489 25.45 4.26953 25.9804 5.16643 26.3275C6.21258 26.7373 7.32099 26.9656 8.44393 27.0025C9.88843 27.0655 10.3459 27.085 14.0089 27.085C17.6719 27.085 18.1414 27.085 19.5739 27.0025C20.6946 26.9797 21.8033 26.7672 22.8529 26.374C23.7496 26.0263 24.5639 25.4955 25.2439 24.8155C25.9239 24.1354 26.4547 23.3211 26.8024 22.4245C27.1969 21.3745 27.4084 20.2675 27.4309 19.1455C27.4954 17.7025 27.5149 17.245 27.5149 13.5805C27.5149 9.91601 27.5149 9.45101 27.4309 8.01551C27.4135 6.87892 27.1998 5.75388 26.7994 4.69001ZM24.9724 18.988C24.9628 19.8525 24.805 20.7089 24.5059 21.52C24.2807 22.1033 23.9358 22.633 23.4935 23.075C23.0513 23.517 22.5214 23.8616 21.9379 24.0865C21.1358 24.3842 20.2885 24.542 19.4329 24.553C18.0079 24.619 17.6059 24.6355 13.9519 24.6355C10.2949 24.6355 9.92143 24.6355 8.46943 24.553C7.61432 24.5425 6.76742 24.3847 5.96593 24.0865C5.38046 23.863 4.84843 23.519 4.40426 23.0769C3.9601 22.6348 3.61368 22.1044 3.38743 21.52C3.0926 20.7176 2.9349 19.8713 2.92093 19.0165C2.85643 17.5915 2.84143 17.1895 2.84143 13.5355C2.84143 9.88001 2.84143 9.50651 2.92093 8.05301C2.93063 7.18904 3.08841 6.33314 3.38743 5.52251C3.84493 4.33901 4.78243 3.40751 5.96593 2.95451C6.76781 2.65772 7.61447 2.49995 8.46943 2.48801C9.89593 2.42351 10.2964 2.40551 13.9519 2.40551C17.6074 2.40551 17.9824 2.40551 19.4329 2.48801C20.2885 2.4983 21.136 2.65611 21.9379 2.95451C22.5213 3.17992 23.0511 3.52481 23.4934 3.96705C23.9356 4.40929 24.2805 4.93911 24.5059 5.52251C24.8008 6.32493 24.9585 7.17125 24.9724 8.02601C25.0369 9.45251 25.0534 9.85301 25.0534 13.5085C25.0534 17.1625 25.0534 17.5555 24.9889 18.9895H24.9724V18.988Z" fill="black"/>
</svg>
